<svg width="65" height="120" viewBox="0 0 65 120" fill="none" xmlns="http://www.w3.org/2000/svg">
<path d="M53.6293 4.94528C52.6137 1.98764 49.8262 0 46.6976 0H18.1688C15.039 0 12.2526 1.98756 11.238 4.94528L0.466998 36.2455C0.0112561 37.5672 -0.114293 38.9948 0.105209 40.3751L11.6817 113.811C12.2454 117.398 15.2922 120 18.9213 120H45.9453C49.5763 120 52.6213 117.398 53.1868 113.81L64.7633 40.3741C64.9819 38.993 64.8564 37.5644 64.4016 36.2436L53.6293 4.94528ZM60.8103 39.7527L49.2338 113.189C48.9771 114.82 47.5941 116.002 45.9452 116.002H18.9212C17.2722 116.002 15.8893 114.819 15.6307 113.191L4.05417 39.752C3.93791 39.0163 4.00488 38.2536 4.24762 37.5496L15.0196 6.24695C15.4809 4.90302 16.7467 4.00084 18.1689 4.00084H46.6977C48.1189 4.00084 49.3856 4.90394 49.847 6.24881L60.6181 37.5491C60.8608 38.2522 60.9278 39.0148 60.8115 39.7515L60.8103 39.7527Z" fill="#FFBB30"/>
<path d="M45.5985 106.287C44.514 106.115 43.4835 106.859 43.3114 107.95L43.0938 109.333H38.6564C37.5524 109.333 36.6567 110.228 36.6567 111.333C36.6567 112.438 37.5524 113.333 38.6564 113.333H44.8031C45.7871 113.333 46.626 112.617 46.7776 111.644L47.2613 108.573C47.4342 107.483 46.6893 106.459 45.5983 106.287L45.5985 106.287Z" fill="#FFBB30"/>
<path d="M33.4367 109.334H21.7754L17.3594 81.3292C17.1874 80.2373 16.1578 79.4961 15.0724 79.6635C13.9814 79.8355 13.2364 80.8595 13.4085 81.9505L18.0895 111.644C18.2411 112.617 19.08 113.334 20.065 113.334H33.4355C34.5395 113.334 35.4352 112.439 35.4352 111.334C35.4361 110.228 34.5405 109.333 33.4365 109.333L33.4367 109.334Z" fill="#FFBB30"/>
<path d="M13.9528 72.5578C15.0438 72.3857 15.7888 71.3617 15.6167 70.2707L10.7191 39.2062L13.7324 30.458C14.0942 29.4136 13.538 28.2752 12.4926 27.9152C11.4537 27.5534 10.3098 28.1096 9.95166 29.154L6.77545 38.3738C6.66849 38.6836 6.63966 39.0128 6.69174 39.3365L11.6668 70.8915C11.8212 71.8764 12.6722 72.5805 13.6385 72.5805C13.7417 72.5805 13.8478 72.5731 13.9529 72.5573L13.9528 72.5578Z" fill="#FFBB30"/>
<path d="M14.4836 22.1335C14.6984 22.2079 14.9179 22.2433 15.1347 22.2433C15.9643 22.2433 16.74 21.7215 17.0255 20.8937L20.5477 10.6668H25.3227C26.4267 10.6668 27.3223 9.77203 27.3223 8.66712C27.3223 7.5622 26.4267 6.66748 25.3227 6.66748H19.121C18.2663 6.66748 17.5073 7.20877 17.2301 8.01701L13.2449 19.5916C12.884 20.6342 13.4393 21.7736 14.4837 22.1336L14.4836 22.1335Z" fill="#FFBB30"/>
<path d="M31.991 10.667H44.3189L48.3164 22.2806C48.6019 23.1103 49.3766 23.6311 50.2072 23.6311C50.423 23.6311 50.6415 23.5967 50.8582 23.5213C51.9027 23.1614 52.457 22.0239 52.098 20.9804L47.6365 8.01622C47.3584 7.208 46.6004 6.66669 45.7457 6.66669H31.9908C30.8869 6.66669 29.9912 7.56141 29.9912 8.66632C29.9903 9.77216 30.8869 10.6669 31.9908 10.6669L31.991 10.667Z" fill="#FFBB30"/>
<path d="M55.0102 29.4479C54.6503 28.4034 53.5166 27.851 52.4693 28.2081C51.4248 28.568 50.8705 29.7055 51.2295 30.751L54.1517 39.2499L49.0252 71.7454C48.8531 72.8363 49.5981 73.8603 50.6891 74.0324C50.7942 74.0501 50.8984 74.0575 51.0025 74.0575C51.9707 74.0575 52.8199 73.3544 52.9742 72.3695L58.1779 39.3811C58.2281 39.0584 58.2002 38.7282 58.0942 38.4185L55.0102 29.4479Z" fill="#FFBB30"/>
<path d="M49.7005 80.2935C48.6151 80.1298 47.5855 80.8664 47.4135 81.9593L44.5704 99.9887C44.3974 101.08 45.1423 102.104 46.2333 102.276C46.3384 102.293 46.4444 102.301 46.5477 102.301C47.5159 102.301 48.365 101.598 48.5194 100.613L51.3644 82.5817C51.5365 81.4898 50.7925 80.4658 49.7005 80.2937L49.7005 80.2935Z" fill="#FFBB30"/>
<path d="M26.1006 25.0002V32.1674H19.6608C18.5568 32.1674 17.6611 33.0621 17.6611 34.167V42.8333C17.6611 43.9382 18.5568 44.8329 19.6608 44.8329H26.1006V68.001C26.1006 69.1059 26.9962 70.0006 28.1002 70.0006H36.7665C37.8705 70.0006 38.7661 69.1059 38.7661 68.001L38.768 44.8339H45.2078C46.3118 44.8339 47.2074 43.9392 47.2074 42.8342V34.168C47.2074 33.0631 46.3118 32.1683 45.2078 32.1683H38.768V25.0004C38.768 23.8955 37.8723 23.0008 36.7683 23.0008H28.1021C26.9972 23.0008 26.1006 23.8955 26.1006 25.0004L26.1006 25.0002ZM30.1009 34.1669V26.9997H34.768V34.1669C34.768 35.2718 35.6637 36.1666 36.7677 36.1666H43.2075V40.8337H36.7677C35.6637 40.8337 34.768 41.7285 34.768 42.8334V66.0005H30.1009V42.8334C30.1009 41.7285 29.2052 40.8337 28.1012 40.8337H21.6614V36.1666H28.1012C29.2052 36.1666 30.1009 35.2718 30.1009 34.1669Z" fill="#FFBB30"/>
</svg>
