<svg width="160" height="160" viewBox="0 0 160 160" fill="none" xmlns="http://www.w3.org/2000/svg">
<path d="M101.629 24.9453C100.614 21.9876 97.8262 20 94.6976 20H66.1688C63.039 20 60.2526 21.9876 59.238 24.9453L48.467 56.2455C48.0113 57.5672 47.8857 58.9948 48.1052 60.3751L59.6817 133.811C60.2454 137.398 63.2922 140 66.9213 140H93.9453C97.5763 140 100.621 137.398 101.187 133.81L112.763 60.3741C112.982 58.993 112.856 57.5644 112.402 56.2436L101.629 24.9453ZM108.81 59.7527L97.2338 133.189C96.9771 134.82 95.5941 136.002 93.9452 136.002H66.9212C65.2722 136.002 63.8893 134.819 63.6307 133.191L52.0542 59.752C51.9379 59.0163 52.0049 58.2536 52.2476 57.5496L63.0196 26.247C63.4809 24.903 64.7467 24.0008 66.1689 24.0008H94.6977C96.1189 24.0008 97.3856 24.9039 97.847 26.2488L108.618 57.5491C108.861 58.2522 108.928 59.0148 108.812 59.7515L108.81 59.7527Z" fill="#79A7F3"/>
<path d="M93.5985 126.287C92.514 126.115 91.4835 126.859 91.3114 127.95L91.0938 129.333H86.6564C85.5524 129.333 84.6567 130.228 84.6567 131.333C84.6567 132.438 85.5524 133.333 86.6564 133.333H92.8031C93.7871 133.333 94.626 132.617 94.7776 131.644L95.2613 128.573C95.4342 127.483 94.6893 126.459 93.5983 126.287L93.5985 126.287Z" fill="#79A7F3"/>
<path d="M81.4367 129.334H69.7754L65.3594 101.329C65.1874 100.237 64.1578 99.4961 63.0724 99.6635C61.9814 99.8355 61.2364 100.86 61.4085 101.951L66.0895 131.644C66.2411 132.617 67.08 133.334 68.065 133.334H81.4355C82.5395 133.334 83.4352 132.439 83.4352 131.334C83.4361 130.228 82.5405 129.333 81.4365 129.333L81.4367 129.334Z" fill="#79A7F3"/>
<path d="M61.9528 92.5578C63.0438 92.3857 63.7888 91.3617 63.6167 90.2707L58.7191 59.2062L61.7324 50.458C62.0942 49.4136 61.538 48.2752 60.4926 47.9152C59.4537 47.5534 58.3098 48.1096 57.9517 49.154L54.7754 58.3738C54.6685 58.6836 54.6397 59.0128 54.6917 59.3365L59.6668 90.8915C59.8212 91.8764 60.6722 92.5805 61.6385 92.5805C61.7417 92.5805 61.8478 92.5731 61.9529 92.5573L61.9528 92.5578Z" fill="#79A7F3"/>
<path d="M62.4836 42.1335C62.6984 42.2079 62.9179 42.2433 63.1347 42.2433C63.9643 42.2433 64.74 41.7215 65.0255 40.8937L68.5477 30.6668H73.3227C74.4267 30.6668 75.3223 29.772 75.3223 28.6671C75.3223 27.5622 74.4267 26.6675 73.3227 26.6675H67.121C66.2663 26.6675 65.5073 27.2088 65.2301 28.017L61.2449 39.5916C60.884 40.6342 61.4393 41.7736 62.4837 42.1336L62.4836 42.1335Z" fill="#79A7F3"/>
<path d="M79.991 30.667H92.3189L96.3164 42.2807C96.6019 43.1103 97.3766 43.6312 98.2072 43.6312C98.423 43.6312 98.6415 43.5967 98.8582 43.5214C99.9027 43.1615 100.457 42.024 100.098 40.9804L95.6365 28.0163C95.3584 27.2081 94.6004 26.6667 93.7457 26.6667H79.9908C78.8869 26.6667 77.9912 27.5615 77.9912 28.6664C77.9903 29.7722 78.8869 30.6669 79.9908 30.6669L79.991 30.667Z" fill="#79A7F3"/>
<path d="M103.01 49.4479C102.65 48.4035 101.517 47.851 100.469 48.2082C99.4248 48.5681 98.8705 49.7056 99.2295 50.7511L102.152 59.2499L97.0252 91.7454C96.8531 92.8364 97.5981 93.8604 98.6891 94.0325C98.7942 94.0501 98.8984 94.0576 99.0025 94.0576C99.9707 94.0576 100.82 93.3545 100.974 92.3695L106.178 59.3812C106.228 59.0584 106.2 58.7283 106.094 58.4185L103.01 49.4479Z" fill="#79A7F3"/>
<path d="M97.7005 100.294C96.6151 100.13 95.5855 100.866 95.4135 101.959L92.5704 119.989C92.3974 121.08 93.1423 122.104 94.2333 122.276C94.3384 122.293 94.4444 122.301 94.5477 122.301C95.5159 122.301 96.365 121.598 96.5194 120.613L99.3644 102.582C99.5365 101.49 98.7925 100.466 97.7005 100.294L97.7005 100.294Z" fill="#79A7F3"/>
<path d="M74.1006 45.0001V52.1673H67.6608C66.5568 52.1673 65.6611 53.0621 65.6611 54.167V62.8332C65.6611 63.9381 66.5568 64.8329 67.6608 64.8329H74.1006V88.0009C74.1006 89.1058 74.9962 90.0005 76.1002 90.0005H84.7665C85.8705 90.0005 86.7661 89.1058 86.7661 88.0009L86.768 64.8338H93.2078C94.3118 64.8338 95.2074 63.9391 95.2074 62.8342V54.1679C95.2074 53.063 94.3118 52.1683 93.2078 52.1683H86.768V45.0004C86.768 43.8955 85.8723 43.0007 84.7683 43.0007H76.1021C74.9972 43.0007 74.1006 43.8955 74.1006 45.0004L74.1006 45.0001ZM78.1009 54.1669V46.9997H82.768V54.1669C82.768 55.2718 83.6637 56.1665 84.7677 56.1665H91.2075V60.8337H84.7677C83.6637 60.8337 82.768 61.7284 82.768 62.8333V86.0004H78.1009V62.8333C78.1009 61.7284 77.2052 60.8337 76.1012 60.8337H69.6614V56.1665H76.1012C77.2052 56.1665 78.1009 55.2718 78.1009 54.1669Z" fill="#79A7F3"/>
</svg>
