<svg width="88" height="120" viewBox="0 0 88 120" fill="none" xmlns="http://www.w3.org/2000/svg">
<mask id="path-1-inside-1_25_552" fill="white">
<path d="M8.18139 0C3.69646 0 0 3.69646 0 8.1814V111.819C0 116.304 3.69646 120 8.18139 120H79.091C83.576 120 87.2724 116.304 87.2724 111.819V8.1814C87.2724 3.69646 83.576 0 79.091 0H8.18139ZM8.18139 5.4541H79.091C80.6491 5.4541 81.8181 6.62314 81.8181 8.18115V111.818C81.8181 113.376 80.6491 114.545 79.091 114.545H8.18139C6.62333 114.545 5.45435 113.376 5.45435 111.818V8.18115C5.45435 6.62309 6.62338 5.4541 8.18139 5.4541ZM13.3808 10.9082C11.9749 11.0414 10.9028 12.2237 10.9097 13.6362V32.7268C10.9097 34.2326 12.1301 35.4539 13.6367 35.4539H73.6372C75.1439 35.4539 76.3642 34.2325 76.3642 32.7268V13.6362C76.3642 12.1295 75.1439 10.9092 73.6372 10.9082H13.6367C13.5511 10.9044 13.4664 10.9044 13.3808 10.9082H13.3808ZM16.3638 16.3633H70.9097V29.9998H16.3638V16.3633ZM16.3638 49.0908C14.858 49.0908 13.6367 50.3122 13.6367 51.8179V62.7273C13.6367 64.234 14.8581 65.4543 16.3638 65.4543H27.2732C28.7789 65.4543 30.0002 64.234 30.0002 62.7273V51.8179C30.0002 50.3121 28.7789 49.0908 27.2732 49.0908H16.3638ZM38.1826 49.0908C36.6759 49.0908 35.4556 50.3122 35.4546 51.8179V62.7273C35.4555 64.234 36.6759 65.4543 38.1826 65.4543H49.0911C50.5978 65.4543 51.8181 64.234 51.8191 62.7273V51.8179C51.8181 50.3121 50.5977 49.0908 49.0911 49.0908H38.1826ZM60.0005 49.0908C58.4947 49.0908 57.2734 50.3122 57.2734 51.8179V62.7273C57.2734 64.234 58.4948 65.4543 60.0005 65.4543H70.9099C72.4157 65.4543 73.6369 64.234 73.6369 62.7273V51.8179C73.6369 50.3121 72.4156 49.0908 70.9099 49.0908H60.0005ZM19.0911 54.5459H24.5461V60H19.0911V54.5459ZM40.9099 54.5459H46.364V60H40.9099V54.5459ZM62.7278 54.5459H68.1828V60H62.7278V54.5459ZM16.3638 70.9094C14.858 70.9094 13.6367 72.1308 13.6367 73.6365V84.5459C13.6367 86.0517 14.8581 87.2729 16.3638 87.2729H27.2732C28.7789 87.2729 30.0002 86.0516 30.0002 84.5459V73.6365C30.0002 72.1307 28.7789 70.9094 27.2732 70.9094H16.3638ZM38.1826 70.9094C36.6759 70.9094 35.4556 72.1308 35.4546 73.6365V84.5459C35.4555 86.0517 36.6759 87.2729 38.1826 87.2729H49.0911C50.5978 87.2729 51.8181 86.0516 51.8191 84.5459V73.6365C51.8181 72.1307 50.5977 70.9094 49.0911 70.9094H38.1826ZM59.7445 70.9094C58.3396 71.0416 57.2676 72.2249 57.2734 73.6365V106.364C57.2734 107.871 58.4948 109.091 60.0005 109.092H70.9099C72.4157 109.091 73.6369 107.871 73.6369 106.364V73.6365C73.6369 72.1307 72.4156 70.9094 70.9099 70.9094H60.0005C59.9158 70.9056 59.8302 70.9056 59.7446 70.9094H59.7445ZM19.0908 76.3635H24.5459V81.8186H19.0908V76.3635ZM40.9097 76.3635H46.3638V81.8186H40.9097V76.3635ZM62.7275 76.3635H68.1826V103.636H62.7275V76.3635ZM16.3635 92.7271C14.8578 92.728 13.6365 93.9484 13.6365 95.4551V106.364C13.6365 107.87 14.8578 109.091 16.3635 109.092H27.2729C28.7787 109.091 30 107.87 30 106.364V95.4551C30 93.9484 28.7787 92.728 27.2729 92.7271H16.3635ZM38.1824 92.7271C36.6757 92.728 35.4553 93.9484 35.4543 95.4551V106.364C35.4553 107.87 36.6757 109.091 38.1824 109.092H49.0908C50.5975 109.091 51.8179 107.87 51.8188 106.364V95.4551C51.8179 93.9484 50.5975 92.728 49.0908 92.7271H38.1824ZM19.0908 98.1821H24.5459V103.636H19.0908V98.1821ZM40.9097 98.1821H46.3638V103.636H40.9097V98.1821Z"/>
</mask>
<path d="M8.18139 0C3.69646 0 0 3.69646 0 8.1814V111.819C0 116.304 3.69646 120 8.18139 120H79.091C83.576 120 87.2724 116.304 87.2724 111.819V8.1814C87.2724 3.69646 83.576 0 79.091 0H8.18139ZM8.18139 5.4541H79.091C80.6491 5.4541 81.8181 6.62314 81.8181 8.18115V111.818C81.8181 113.376 80.6491 114.545 79.091 114.545H8.18139C6.62333 114.545 5.45435 113.376 5.45435 111.818V8.18115C5.45435 6.62309 6.62338 5.4541 8.18139 5.4541ZM13.3808 10.9082C11.9749 11.0414 10.9028 12.2237 10.9097 13.6362V32.7268C10.9097 34.2326 12.1301 35.4539 13.6367 35.4539H73.6372C75.1439 35.4539 76.3642 34.2325 76.3642 32.7268V13.6362C76.3642 12.1295 75.1439 10.9092 73.6372 10.9082H13.6367C13.5511 10.9044 13.4664 10.9044 13.3808 10.9082H13.3808ZM16.3638 16.3633H70.9097V29.9998H16.3638V16.3633ZM16.3638 49.0908C14.858 49.0908 13.6367 50.3122 13.6367 51.8179V62.7273C13.6367 64.234 14.8581 65.4543 16.3638 65.4543H27.2732C28.7789 65.4543 30.0002 64.234 30.0002 62.7273V51.8179C30.0002 50.3121 28.7789 49.0908 27.2732 49.0908H16.3638ZM38.1826 49.0908C36.6759 49.0908 35.4556 50.3122 35.4546 51.8179V62.7273C35.4555 64.234 36.6759 65.4543 38.1826 65.4543H49.0911C50.5978 65.4543 51.8181 64.234 51.8191 62.7273V51.8179C51.8181 50.3121 50.5977 49.0908 49.0911 49.0908H38.1826ZM60.0005 49.0908C58.4947 49.0908 57.2734 50.3122 57.2734 51.8179V62.7273C57.2734 64.234 58.4948 65.4543 60.0005 65.4543H70.9099C72.4157 65.4543 73.6369 64.234 73.6369 62.7273V51.8179C73.6369 50.3121 72.4156 49.0908 70.9099 49.0908H60.0005ZM19.0911 54.5459H24.5461V60H19.0911V54.5459ZM40.9099 54.5459H46.364V60H40.9099V54.5459ZM62.7278 54.5459H68.1828V60H62.7278V54.5459ZM16.3638 70.9094C14.858 70.9094 13.6367 72.1308 13.6367 73.6365V84.5459C13.6367 86.0517 14.8581 87.2729 16.3638 87.2729H27.2732C28.7789 87.2729 30.0002 86.0516 30.0002 84.5459V73.6365C30.0002 72.1307 28.7789 70.9094 27.2732 70.9094H16.3638ZM38.1826 70.9094C36.6759 70.9094 35.4556 72.1308 35.4546 73.6365V84.5459C35.4555 86.0517 36.6759 87.2729 38.1826 87.2729H49.0911C50.5978 87.2729 51.8181 86.0516 51.8191 84.5459V73.6365C51.8181 72.1307 50.5977 70.9094 49.0911 70.9094H38.1826ZM59.7445 70.9094C58.3396 71.0416 57.2676 72.2249 57.2734 73.6365V106.364C57.2734 107.871 58.4948 109.091 60.0005 109.092H70.9099C72.4157 109.091 73.6369 107.871 73.6369 106.364V73.6365C73.6369 72.1307 72.4156 70.9094 70.9099 70.9094H60.0005C59.9158 70.9056 59.8302 70.9056 59.7446 70.9094H59.7445ZM19.0908 76.3635H24.5459V81.8186H19.0908V76.3635ZM40.9097 76.3635H46.3638V81.8186H40.9097V76.3635ZM62.7275 76.3635H68.1826V103.636H62.7275V76.3635ZM16.3635 92.7271C14.8578 92.728 13.6365 93.9484 13.6365 95.4551V106.364C13.6365 107.87 14.8578 109.091 16.3635 109.092H27.2729C28.7787 109.091 30 107.87 30 106.364V95.4551C30 93.9484 28.7787 92.728 27.2729 92.7271H16.3635ZM38.1824 92.7271C36.6757 92.728 35.4553 93.9484 35.4543 95.4551V106.364C35.4553 107.87 36.6757 109.091 38.1824 109.092H49.0908C50.5975 109.091 51.8179 107.87 51.8188 106.364V95.4551C51.8179 93.9484 50.5975 92.728 49.0908 92.7271H38.1824ZM19.0908 98.1821H24.5459V103.636H19.0908V98.1821ZM40.9097 98.1821H46.3638V103.636H40.9097V98.1821Z" fill="#FFBB30" stroke="#222222" stroke-width="1.5" mask="url(#path-1-inside-1_25_552)"/>
</svg>
