<svg width="121" height="121" viewBox="0 0 121 121" fill="none" xmlns="http://www.w3.org/2000/svg">
<path d="M18.8447 60.9458V64.6958C18.8447 65.7312 19.6836 66.5708 20.7181 66.5708C21.7526 66.5708 22.5914 65.7312 22.5914 64.6958V60.9458C22.5914 59.9104 21.7526 59.0709 20.7181 59.0709C19.6836 59.0709 18.8447 59.9104 18.8447 60.9458Z" fill="#FFBB30"/>
<path d="M26.3384 60.9458V64.6958C26.3384 65.7312 27.1772 66.5708 28.2117 66.5708C29.2462 66.5708 30.0851 65.7312 30.0851 64.6958V60.9458C30.0851 59.9104 29.2462 59.0709 28.2117 59.0709C27.1772 59.0709 26.3384 59.9104 26.3384 60.9458Z" fill="#FFBB30"/>
<path d="M95.6544 64.6958V60.9458C95.6544 59.9104 94.8156 59.0709 93.7811 59.0709C92.7465 59.0709 91.9077 59.9104 91.9077 60.9458V64.6958C91.9077 65.7312 92.7465 66.5708 93.7811 66.5708C94.8156 66.5708 95.6544 65.7312 95.6544 64.6958Z" fill="#FFBB30"/>
<path d="M103.148 64.6958V60.9458C103.148 59.9104 102.309 59.0709 101.274 59.0709C100.24 59.0709 99.4009 59.9104 99.4009 60.9458V64.6958C99.4009 65.7312 100.24 66.5708 101.274 66.5708C102.309 66.5708 103.148 65.7312 103.148 64.6958Z" fill="#FFBB30"/>
<path d="M49.7562 96.5684C48.7216 96.5684 47.8828 97.4079 47.8828 98.4433V102.193C47.8828 103.229 48.7216 104.068 49.7562 104.068C50.7907 104.068 51.6295 103.229 51.6295 102.193V98.4433C51.6295 97.9461 51.4321 97.469 51.0809 97.1175C50.7296 96.7659 50.2529 96.5684 49.7562 96.5684Z" fill="#FFBB30"/>
<path d="M57.2493 96.5684C56.2148 96.5684 55.376 97.4079 55.376 98.4433V102.193C55.376 103.229 56.2148 104.068 57.2493 104.068C58.2838 104.068 59.1227 103.229 59.1227 102.193V98.4433C59.1227 97.9461 58.9253 97.469 58.5741 97.1175C58.2228 96.7659 57.7461 96.5684 57.2493 96.5684Z" fill="#FFBB30"/>
<path d="M64.743 96.5684C63.7085 96.5684 62.8696 97.4079 62.8696 98.4433V102.193C62.8696 103.229 63.7085 104.068 64.743 104.068C65.7775 104.068 66.6163 103.229 66.6163 102.193V98.4433C66.6163 97.9461 66.419 97.469 66.0677 97.1175C65.7165 96.7659 65.2398 96.5684 64.743 96.5684Z" fill="#FFBB30"/>
<path d="M72.2366 96.5684C71.2021 96.5684 70.3633 97.4079 70.3633 98.4433V102.193C70.3633 103.229 71.2021 104.068 72.2366 104.068C73.2712 104.068 74.11 103.229 74.11 102.193V98.4433C74.11 97.9461 73.9126 97.469 73.5614 97.1175C73.2101 96.7659 72.7334 96.5684 72.2366 96.5684Z" fill="#FFBB30"/>
<path d="M91.9077 108.757H85.3509V90.9446C85.3509 89.9501 84.9562 88.9959 84.2537 88.2928C83.5512 87.5897 82.5978 87.1946 81.6042 87.1946H66.6174V63.7562H82.5409C83.5344 63.7562 84.4879 63.3611 85.1904 62.658C85.8929 61.9549 86.2876 61.0007 86.2876 60.0063V56.2563C86.2876 55.2619 85.8929 54.3076 85.1904 53.6045C84.4879 52.9014 83.5344 52.5063 82.5409 52.5063H66.6174V39.3814C66.6174 38.387 66.2227 37.4328 65.5202 36.7297C64.8177 36.0266 63.8642 35.6315 62.8707 35.6315H59.124C58.1305 35.6315 57.177 36.0266 56.4745 36.7297C55.772 37.4328 55.3773 38.387 55.3773 39.3814V52.5063H39.4538C38.4603 52.5063 37.5068 52.9014 36.8043 53.6045C36.1018 54.3076 35.7071 55.2619 35.7071 56.2563V60.0063C35.7071 61.0007 36.1018 61.9549 36.8043 62.658C37.5068 63.3611 38.4603 63.7562 39.4538 63.7562H55.3773V87.1946H40.3905C39.3969 87.1946 38.4435 87.5897 37.741 88.2928C37.0385 88.9959 36.6438 89.9501 36.6438 90.9446V108.757H30.087C29.0935 108.757 28.1401 109.152 27.4376 109.855C26.7351 110.558 26.3403 111.512 26.3403 112.507V116.257C26.3403 117.251 26.7351 118.205 27.4376 118.909C28.1401 119.612 29.0935 120.007 30.087 120.007H91.9077C92.9012 120.007 93.8546 119.612 94.5571 118.909C95.2596 118.205 95.6544 117.251 95.6544 116.257V112.507C95.6544 111.512 95.2596 110.558 94.5571 109.855C93.8546 109.152 92.9012 108.757 91.9077 108.757ZM59.1251 60.0073H39.4549V56.2574H59.1251V39.3825H62.8718V56.2574H82.542V60.0073H62.8718V87.1957H59.1251V60.0073ZM40.3915 90.9456H81.6053V108.758H40.3915V90.9456ZM91.9077 116.257H30.087V112.507H91.9077V116.257Z" fill="#FFBB30"/>
<path d="M120.943 78.7571V75.0071C120.943 74.0127 120.549 73.0585 119.846 72.3554C119.144 71.6522 118.19 71.2571 117.197 71.2571H110.64V53.4448C110.64 52.4504 110.245 51.4962 109.543 50.793C108.84 50.0899 107.887 49.6948 106.893 49.6948H95.6532V26.2565H109.703C110.697 26.2565 111.65 25.8614 112.353 25.1583C113.055 24.4552 113.45 23.5009 113.45 22.5065V18.7565C113.45 17.7621 113.055 16.8079 112.353 16.1048C111.65 15.4017 110.697 15.0066 109.703 15.0066H95.6532V3.75668C95.6532 2.76227 95.2584 1.80803 94.5559 1.10492C93.8534 0.40181 92.9 0.00671387 91.9065 0.00671387H88.1598C87.1662 0.00671387 86.2128 0.40181 85.5103 1.10492C84.8078 1.80803 84.4131 2.76227 84.4131 3.75668V15.0066H70.3629C69.3694 15.0066 68.416 15.4017 67.7135 16.1048C67.011 16.8079 66.6162 17.7621 66.6162 18.7565V22.5065C66.6162 23.5009 67.011 24.4552 67.7135 25.1583C68.416 25.8614 69.3694 26.2565 70.3629 26.2565H84.4131V49.0006C86.6979 49.6183 88.5687 51.2589 89.4803 53.4444H106.893V71.2567H73.1729V67.5067H70.3629V75.0067H117.197V78.7566H70.3629V82.5066H107.156L117.871 91.4504H117.871C118.249 91.7902 118.749 91.9618 119.257 91.925C119.765 91.889 120.236 91.6471 120.561 91.2562C120.887 90.8653 121.04 90.358 120.985 89.8516C120.93 89.346 120.671 88.884 120.269 88.5718L113 82.5065H117.197C118.19 82.5065 119.144 82.1114 119.846 81.4083C120.549 80.7052 120.943 79.7509 120.943 78.7565L120.943 78.7571ZM88.1608 49.6959V22.5076H70.364V18.7576H88.1608V3.75775H91.9075V18.7576H109.704V22.5076H91.9075V49.6959H88.1608Z" fill="#FFBB30"/>
<path d="M51.6295 82.5071V78.7571H4.79567V75.0071H51.6295V67.5072H48.8194V71.2572H15.0991V53.4448H32.5121C33.1318 51.9423 34.219 50.6801 35.6122 49.8446C36.2244 49.4738 36.8867 49.1934 37.5792 49.0101V26.2575H51.6294C52.6229 26.2575 53.5763 25.8624 54.2788 25.1593C54.9813 24.4561 55.3761 23.5019 55.3761 22.5075V18.7575C55.3761 17.7631 54.9813 16.8089 54.2788 16.1058C53.5763 15.4027 52.6229 15.0076 51.6294 15.0076H37.5792V3.75766C37.5792 2.76325 37.1845 1.809 36.482 1.10589C35.7795 0.402787 34.8261 0.00769043 33.8325 0.00769043H30.0858C29.0923 0.00769043 28.1389 0.402787 27.4364 1.10589C26.7339 1.809 26.3391 2.76325 26.3391 3.75766V15.0076H12.289C11.2954 15.0076 10.342 15.4027 9.63951 16.1058C8.93702 16.8089 8.54226 17.7631 8.54226 18.7575V22.5075C8.54226 23.5019 8.93702 24.4561 9.63951 25.1593C10.342 25.8624 11.2954 26.2575 12.289 26.2575H26.3391V49.6958H15.099C14.1055 49.6958 13.152 50.0909 12.4495 50.794C11.747 51.4971 11.3523 52.4514 11.3523 53.4458V71.2581H4.79556C3.80202 71.2581 2.8486 71.6532 2.1461 72.3563C1.44361 73.0594 1.04885 74.0137 1.04885 75.0081V78.7581C1.04885 79.7525 1.44361 80.7067 2.1461 81.4098C2.8486 82.1129 3.80202 82.508 4.79556 82.508H8.9923L1.72305 88.5641C1.32078 88.8755 1.06237 89.3375 1.00715 89.844C0.951953 90.3504 1.105 90.8568 1.43117 91.2485C1.75649 91.6394 2.22735 91.8805 2.73498 91.9173C3.2426 91.9542 3.74274 91.7826 4.1216 91.4427L14.8365 82.5082L51.6295 82.5071ZM30.087 22.5076H12.2901V18.7576H30.087V3.75776H33.8337V18.7576H51.6305V22.5076H33.8337V49.6959H30.087V22.5076Z" fill="#FFBB30"/>
</svg>
