<svg width="160" height="160" viewBox="0 0 160 160" fill="none" xmlns="http://www.w3.org/2000/svg">
<path d="M37.8447 80.9458V84.6958C37.8447 85.7312 38.6836 86.5707 39.7181 86.5707C40.7526 86.5707 41.5914 85.7312 41.5914 84.6958V80.9458C41.5914 79.9104 40.7526 79.0708 39.7181 79.0708C38.6836 79.0708 37.8447 79.9104 37.8447 80.9458Z" fill="#79A7F3"/>
<path d="M45.3384 80.9458V84.6958C45.3384 85.7312 46.1772 86.5707 47.2117 86.5707C48.2462 86.5707 49.0851 85.7312 49.0851 84.6958V80.9458C49.0851 79.9104 48.2462 79.0708 47.2117 79.0708C46.1772 79.0708 45.3384 79.9104 45.3384 80.9458Z" fill="#79A7F3"/>
<path d="M114.654 84.6958V80.9458C114.654 79.9104 113.816 79.0708 112.781 79.0708C111.747 79.0708 110.908 79.9104 110.908 80.9458V84.6958C110.908 85.7312 111.747 86.5707 112.781 86.5707C113.816 86.5707 114.654 85.7312 114.654 84.6958Z" fill="#79A7F3"/>
<path d="M122.148 84.6958V80.9458C122.148 79.9104 121.309 79.0708 120.274 79.0708C119.24 79.0708 118.401 79.9104 118.401 80.9458V84.6958C118.401 85.7312 119.24 86.5707 120.274 86.5707C121.309 86.5707 122.148 85.7312 122.148 84.6958Z" fill="#79A7F3"/>
<path d="M68.7562 116.568C67.7216 116.568 66.8828 117.408 66.8828 118.443V122.193C66.8828 123.229 67.7216 124.068 68.7562 124.068C69.7907 124.068 70.6295 123.229 70.6295 122.193V118.443C70.6295 117.946 70.4321 117.469 70.0809 117.117C69.7296 116.766 69.2529 116.568 68.7562 116.568Z" fill="#79A7F3"/>
<path d="M76.2493 116.568C75.2148 116.568 74.376 117.408 74.376 118.443V122.193C74.376 123.229 75.2148 124.068 76.2493 124.068C77.2838 124.068 78.1227 123.229 78.1227 122.193V118.443C78.1227 117.946 77.9253 117.469 77.5741 117.117C77.2228 116.766 76.7461 116.568 76.2493 116.568Z" fill="#79A7F3"/>
<path d="M83.743 116.568C82.7085 116.568 81.8696 117.408 81.8696 118.443V122.193C81.8696 123.229 82.7085 124.068 83.743 124.068C84.7775 124.068 85.6163 123.229 85.6163 122.193V118.443C85.6163 117.946 85.419 117.469 85.0677 117.117C84.7165 116.766 84.2398 116.568 83.743 116.568Z" fill="#79A7F3"/>
<path d="M91.2366 116.568C90.2021 116.568 89.3633 117.408 89.3633 118.443V122.193C89.3633 123.229 90.2021 124.068 91.2366 124.068C92.2712 124.068 93.11 123.229 93.11 122.193V118.443C93.11 117.946 92.9126 117.469 92.5614 117.117C92.2101 116.766 91.7334 116.568 91.2366 116.568Z" fill="#79A7F3"/>
<path d="M110.908 128.757H104.351V110.945C104.351 109.95 103.956 108.996 103.254 108.293C102.551 107.59 101.598 107.195 100.604 107.195H85.6174V83.7562H101.541C102.534 83.7562 103.488 83.3611 104.19 82.658C104.893 81.9549 105.288 81.0007 105.288 80.0063V76.2563C105.288 75.2619 104.893 74.3076 104.19 73.6045C103.488 72.9014 102.534 72.5063 101.541 72.5063H85.6174V59.3814C85.6174 58.387 85.2227 57.4328 84.5202 56.7297C83.8177 56.0266 82.8642 55.6315 81.8707 55.6315H78.124C77.1305 55.6315 76.177 56.0266 75.4745 56.7297C74.772 57.4328 74.3773 58.387 74.3773 59.3814V72.5063H58.4538C57.4603 72.5063 56.5068 72.9014 55.8043 73.6045C55.1018 74.3076 54.7071 75.2619 54.7071 76.2563V80.0063C54.7071 81.0007 55.1018 81.9549 55.8043 82.658C56.5068 83.3611 57.4603 83.7562 58.4538 83.7562H74.3773V107.195H59.3905C58.3969 107.195 57.4435 107.59 56.741 108.293C56.0385 108.996 55.6438 109.95 55.6438 110.945V128.757H49.087C48.0935 128.757 47.1401 129.152 46.4376 129.855C45.7351 130.558 45.3403 131.512 45.3403 132.507V136.257C45.3403 137.251 45.7351 138.205 46.4376 138.909C47.1401 139.612 48.0935 140.007 49.087 140.007H110.908C111.901 140.007 112.855 139.612 113.557 138.909C114.26 138.205 114.654 137.251 114.654 136.257V132.507C114.654 131.512 114.26 130.558 113.557 129.855C112.855 129.152 111.901 128.757 110.908 128.757ZM78.1251 80.0073H58.4549V76.2574H78.1251V59.3825H81.8718V76.2574H101.542V80.0073H81.8718V107.196H78.1251V80.0073ZM59.3915 110.946H100.605V128.758H59.3915V110.946ZM110.908 136.257H49.087V132.507H110.908V136.257Z" fill="#79A7F3"/>
<path d="M139.943 98.7571V95.0071C139.943 94.0127 139.549 93.0585 138.846 92.3554C138.144 91.6522 137.19 91.2571 136.197 91.2571H129.64V73.4448C129.64 72.4504 129.245 71.4962 128.543 70.793C127.84 70.0899 126.887 69.6948 125.893 69.6948H114.653V46.2565H128.703C129.697 46.2565 130.65 45.8614 131.353 45.1583C132.055 44.4552 132.45 43.5009 132.45 42.5065V38.7565C132.45 37.7621 132.055 36.8079 131.353 36.1048C130.65 35.4017 129.697 35.0066 128.703 35.0066H114.653V23.7567C114.653 22.7623 114.258 21.808 113.556 21.1049C112.853 20.4018 111.9 20.0067 110.906 20.0067H107.16C106.166 20.0067 105.213 20.4018 104.51 21.1049C103.808 21.808 103.413 22.7623 103.413 23.7567V35.0066H89.3629C88.3694 35.0066 87.416 35.4017 86.7135 36.1048C86.011 36.8079 85.6162 37.7621 85.6162 38.7565V42.5065C85.6162 43.5009 86.011 44.4552 86.7135 45.1583C87.416 45.8614 88.3694 46.2565 89.3629 46.2565H103.413V69.0006C105.698 69.6183 107.569 71.2589 108.48 73.4444H125.893V91.2567H92.1729V87.5068H89.3629V95.0067H136.197V98.7567H89.3629V102.507H126.156L136.871 111.45H136.871C137.249 111.79 137.749 111.962 138.257 111.925C138.765 111.889 139.236 111.647 139.561 111.256C139.887 110.865 140.04 110.358 139.985 109.852C139.93 109.346 139.671 108.884 139.269 108.572L132 102.506H136.197C137.19 102.506 138.144 102.111 138.846 101.408C139.549 100.705 139.943 99.7509 139.943 98.7565L139.943 98.7571ZM107.161 69.6959V42.5076H89.364V38.7576H107.161V23.7578H110.908V38.7576H128.704V42.5076H110.908V69.6959H107.161Z" fill="#79A7F3"/>
<path d="M70.6295 102.507V98.7571H23.7957V95.0071H70.6295V87.5072H67.8194V91.2572H34.0991V73.4448H51.5121C52.1318 71.9423 53.219 70.6801 54.6122 69.8446C55.2244 69.4738 55.8867 69.1934 56.5792 69.0101V46.2575H70.6294C71.6229 46.2575 72.5763 45.8624 73.2788 45.1593C73.9813 44.4561 74.3761 43.5019 74.3761 42.5075V38.7575C74.3761 37.7631 73.9813 36.8089 73.2788 36.1058C72.5763 35.4027 71.6229 35.0076 70.6294 35.0076H56.5792V23.7577C56.5792 22.7633 56.1845 21.809 55.482 21.1059C54.7795 20.4028 53.8261 20.0077 52.8325 20.0077H49.0858C48.0923 20.0077 47.1389 20.4028 46.4364 21.1059C45.7339 21.809 45.3391 22.7633 45.3391 23.7577V35.0076H31.289C30.2954 35.0076 29.342 35.4027 28.6395 36.1058C27.937 36.8089 27.5423 37.7631 27.5423 38.7575V42.5075C27.5423 43.5019 27.937 44.4561 28.6395 45.1593C29.342 45.8624 30.2954 46.2575 31.289 46.2575H45.3391V69.6958H34.099C33.1055 69.6958 32.152 70.0909 31.4495 70.794C30.747 71.4971 30.3523 72.4514 30.3523 73.4458V91.2581H23.7956C22.802 91.2581 21.8486 91.6532 21.1461 92.3563C20.4436 93.0594 20.0489 94.0137 20.0489 95.0081V98.758C20.0489 99.7525 20.4436 100.707 21.1461 101.41C21.8486 102.113 22.802 102.508 23.7956 102.508H27.9923L20.723 108.564C20.3208 108.875 20.0624 109.338 20.0071 109.844C19.952 110.35 20.105 110.857 20.4312 111.249C20.7565 111.639 21.2274 111.88 21.735 111.917C22.2426 111.954 22.7427 111.783 23.1216 111.443L33.8365 102.508L70.6295 102.507ZM49.087 42.5076H31.2901V38.7576H49.087V23.7578H52.8337V38.7576H70.6305V42.5076H52.8337V69.6959H49.087V42.5076Z" fill="#79A7F3"/>
</svg>
