<svg width="56" height="92" viewBox="0 0 56 92" fill="none" xmlns="http://www.w3.org/2000/svg">
<path d="M51.6295 82.5071V78.7571H4.79567V75.0071H51.6295V67.5072H48.8194V71.2572H15.0991V53.4448H32.5121C33.1318 51.9423 34.219 50.6801 35.6122 49.8446C36.2244 49.4738 36.8867 49.1934 37.5792 49.0101V26.2575H51.6294C52.6229 26.2575 53.5763 25.8624 54.2788 25.1593C54.9813 24.4561 55.3761 23.5019 55.3761 22.5075V18.7575C55.3761 17.7631 54.9813 16.8089 54.2788 16.1058C53.5763 15.4027 52.6229 15.0076 51.6294 15.0076H37.5792V3.75766C37.5792 2.76325 37.1845 1.809 36.482 1.10589C35.7795 0.402787 34.8261 0.00769043 33.8325 0.00769043H30.0858C29.0923 0.00769043 28.1389 0.402787 27.4364 1.10589C26.7339 1.809 26.3391 2.76325 26.3391 3.75766V15.0076H12.289C11.2954 15.0076 10.342 15.4027 9.63951 16.1058C8.93702 16.8089 8.54226 17.7631 8.54226 18.7575V22.5075C8.54226 23.5019 8.93702 24.4561 9.63951 25.1593C10.342 25.8624 11.2954 26.2575 12.289 26.2575H26.3391V49.6958H15.099C14.1055 49.6958 13.152 50.0909 12.4495 50.794C11.747 51.4971 11.3523 52.4514 11.3523 53.4458V71.2581H4.79556C3.80202 71.2581 2.8486 71.6532 2.1461 72.3563C1.44361 73.0594 1.04885 74.0137 1.04885 75.0081V78.758C1.04885 79.7525 1.44361 80.7067 2.1461 81.4098C2.8486 82.1129 3.80202 82.508 4.79556 82.508H8.9923L1.72305 88.5641C1.32078 88.8755 1.06237 89.3375 1.00715 89.844C0.951953 90.3504 1.105 90.8568 1.43117 91.2485C1.75649 91.6394 2.22735 91.8805 2.73498 91.9173C3.2426 91.9542 3.74274 91.7826 4.1216 91.4427L14.8365 82.5082L51.6295 82.5071ZM30.087 22.5076H12.2901V18.7576H30.087V3.75776H33.8337V18.7576H51.6305V22.5076H33.8337V49.6959H30.087V22.5076Z" fill="#FFBB30"/>
</svg>
