<svg width="70" height="86" viewBox="0 0 70 86" fill="none" xmlns="http://www.w3.org/2000/svg">
<path d="M65.9077 73.7569H59.3509V55.9445C59.3509 54.9501 58.9562 53.9959 58.2537 53.2928C57.5512 52.5897 56.5978 52.1946 55.6042 52.1946H40.6174V28.7562H56.5409C57.5344 28.7562 58.4879 28.3611 59.1904 27.658C59.8929 26.9549 60.2876 26.0007 60.2876 25.0063V21.2563C60.2876 20.2619 59.8929 19.3076 59.1904 18.6045C58.4879 17.9014 57.5344 17.5063 56.5409 17.5063H40.6174V4.38144C40.6174 3.38703 40.2227 2.43278 39.5202 1.72967C38.8177 1.02657 37.8642 0.63147 36.8707 0.63147H33.124C32.1305 0.63147 31.177 1.02657 30.4745 1.72967C29.772 2.43278 29.3773 3.38703 29.3773 4.38144V17.5063H13.4538C12.4603 17.5063 11.5068 17.9014 10.8043 18.6045C10.1018 19.3076 9.70709 20.2619 9.70709 21.2563V25.0063C9.70709 26.0007 10.1018 26.9549 10.8043 27.658C11.5068 28.3611 12.4603 28.7562 13.4538 28.7562H29.3773V52.1946H14.3905C13.3969 52.1946 12.4435 52.5897 11.741 53.2928C11.0385 53.9959 10.6438 54.9501 10.6438 55.9445V73.7569H4.08704C3.0935 73.7569 2.14008 74.152 1.43758 74.8551C0.735085 75.5582 0.340332 76.5125 0.340332 77.5069V81.2568C0.340332 82.2512 0.735085 83.2055 1.43758 83.9086C2.14008 84.6117 3.0935 85.0068 4.08704 85.0068H65.9077C66.9012 85.0068 67.8546 84.6117 68.5571 83.9086C69.2596 83.2055 69.6544 82.2512 69.6544 81.2568V77.5069C69.6544 76.5125 69.2596 75.5582 68.5571 74.8551C67.8546 74.152 66.9012 73.7569 65.9077 73.7569ZM33.1251 25.0073H13.4549V21.2574H33.1251V4.38251H36.8718V21.2574H56.542V25.0073H36.8718V52.1957H33.1251V25.0073ZM14.3915 55.9456H55.6053V73.758H14.3915V55.9456ZM65.9077 81.2568H4.08704V77.5069H65.9077V81.2568Z" fill="#FFBB30"/>
</svg>
