<svg width="55" height="92" viewBox="0 0 55 92" fill="none" xmlns="http://www.w3.org/2000/svg">
<path d="M54.9434 78.7571V75.0071C54.9434 74.0127 54.5487 73.0585 53.8462 72.3554C53.1437 71.6522 52.1903 71.2571 51.1967 71.2571H44.64V53.4448C44.64 52.4504 44.2452 51.4962 43.5427 50.793C42.8402 50.0899 41.8868 49.6948 40.8933 49.6948H29.6532V26.2565H43.7033C44.6969 26.2565 45.6503 25.8614 46.3528 25.1583C47.0553 24.4552 47.45 23.5009 47.45 22.5065V18.7565C47.45 17.7621 47.0553 16.8079 46.3528 16.1048C45.6503 15.4017 44.6969 15.0066 43.7033 15.0066H29.6532V3.75668C29.6532 2.76227 29.2584 1.80803 28.5559 1.10492C27.8534 0.40181 26.9 0.00671387 25.9065 0.00671387H22.1598C21.1662 0.00671387 20.2128 0.40181 19.5103 1.10492C18.8078 1.80803 18.4131 2.76227 18.4131 3.75668V15.0066H4.36292C3.36937 15.0066 2.41596 15.4017 1.71346 16.1048C1.01096 16.8079 0.616211 17.7621 0.616211 18.7565V22.5065C0.616211 23.5009 1.01096 24.4552 1.71346 25.1583C2.41596 25.8614 3.36937 26.2565 4.36292 26.2565H18.4131V49.0006C20.6979 49.6183 22.5687 51.2589 23.4803 53.4444H40.8933V71.2567H7.17294V67.5068H4.36292V75.0067H51.1967V78.7567H4.36292V82.5066H41.1555L51.8713 91.4504H51.8705C52.2494 91.7902 52.7495 91.9618 53.2571 91.925C53.7648 91.889 54.2356 91.6471 54.5609 91.2562C54.8871 90.8653 55.0401 90.358 54.985 89.8516C54.9298 89.346 54.6714 88.884 54.2691 88.5718L46.9998 82.5065H51.1966C52.1901 82.5065 53.1435 82.1114 53.846 81.4083C54.5485 80.7052 54.9433 79.7509 54.9433 78.7565L54.9434 78.7571ZM22.1608 49.6959V22.5076H4.36399V18.7576H22.1608V3.75775H25.9075V18.7576H43.7044V22.5076H25.9075V49.6959H22.1608Z" fill="#FFBB30"/>
</svg>
