<svg width="120" height="104" viewBox="0 0 120 104" fill="none" xmlns="http://www.w3.org/2000/svg">
<path d="M118.42 43.3191C116.797 42.2239 113.541 40.0421 91.802 56.2613C91.5296 55.5279 91.0946 54.8658 90.5287 54.3259C88.4808 52.3636 84.5966 51.6072 78.9945 52.0662C73.3432 52.4531 67.667 52.1201 62.0997 51.0749C60.5204 50.6188 58.9767 50.049 57.4792 49.3715C55.3957 48.4187 53.2061 47.7181 50.957 47.2841C36.3651 44.1544 25.344 48.4399 18.1475 59.9954L17.749 59.5027H17.7481C16.9435 58.5124 15.7781 57.882 14.5088 57.7482C13.2394 57.6145 11.9689 57.9898 10.9758 58.7915L1.78383 66.2347C0.791614 67.0383 0.159298 68.2037 0.0265026 69.4732C-0.107271 70.7436 0.269028 72.0138 1.07263 73.0072L24.249 101.626C25.0506 102.622 26.2171 103.255 27.4893 103.385C27.6586 103.403 27.8299 103.413 28.0003 103.413C29.1013 103.413 30.1676 103.034 31.0213 102.339L40.2103 94.8978L40.2113 94.8988C41.2035 94.0942 41.8368 92.9297 41.9705 91.6595C42.1043 90.3882 41.728 89.1169 40.9244 88.1235L40.6751 87.8156C47.6832 85.4558 55.2015 85.0449 62.4252 86.627C65.0333 87.0947 67.6722 87.3681 70.3197 87.447H70.4141C92.0055 87.447 116.037 60.6366 119.558 49.2099C120.639 45.7077 119.534 44.0735 118.418 43.3201L118.42 43.3191ZM37.5013 91.5442L28.3094 98.9883H28.3104C28.0938 99.1625 27.7772 99.1279 27.603 98.9123L4.42567 70.2936C4.34002 70.1906 4.30056 70.0568 4.31692 69.924C4.33039 69.7912 4.39584 69.669 4.49978 69.5853L13.6888 62.1441C13.9063 61.9689 14.2239 62.0016 14.4009 62.2182L37.5753 90.8369C37.6609 90.9399 37.7004 91.0736 37.685 91.2074C37.6725 91.3402 37.607 91.4624 37.5012 91.5442L37.5013 91.5442ZM108.528 59.2397C99.6906 70.2735 84.4194 83.135 70.4217 83.135H70.3399C67.9041 83.0532 65.477 82.7952 63.0786 82.3641C54.6499 80.5413 45.8728 81.2073 37.8154 84.2802L21.0468 63.5723C27.262 52.6153 36.7597 48.6485 50.0572 51.5H50.0563C52.0215 51.8724 53.9327 52.4836 55.7487 53.3189C57.4127 54.0705 59.1277 54.7019 60.8812 55.21C66.9597 56.414 73.171 56.8018 79.3505 56.362C85.4012 55.8664 87.1507 57.0597 87.5464 57.438C87.7485 57.6103 87.8524 57.8711 87.8245 58.1347C87.5714 59.0365 87.0479 59.8392 86.3251 60.4349L86.3174 60.4406L86.302 60.458V60.4589C84.1915 62.4896 81.7084 64.0949 78.9907 65.1871C75.5358 66.5883 70.1636 66.084 64.9715 65.599C59.9758 65.1322 55.258 64.6905 51.725 65.8242H51.726C51.1813 65.9984 50.7289 66.3814 50.4672 66.8896C50.2054 67.3977 50.1563 67.9896 50.3305 68.5333C50.6933 69.667 51.9059 70.2926 53.0396 69.9298C55.7382 69.0655 60.2268 69.4861 64.5701 69.8922C67.3283 70.1502 70.1281 70.4119 72.7872 70.4119C75.4483 70.5005 78.1024 70.0847 80.6076 69.1839C83.6978 67.9107 86.5358 66.0956 88.9882 63.8253C108.673 48.529 114.392 47.0017 115.693 46.8891C115.539 48.3799 113.783 52.6789 108.529 59.2396L108.528 59.2397Z" fill="#FFBB30"/>
<path d="M73.8538 42.2917C71.7615 42.2966 69.7539 41.4679 68.2746 39.9878L55.8828 27.5959C53.7107 25.4074 52.8667 22.2267 53.6693 19.2491C54.471 16.2704 56.797 13.9444 59.7756 13.1427C62.7543 12.3401 65.934 13.1841 68.1225 15.3562L73.9103 21.144L92.5039 2.55047C94.1178 0.923051 96.315 0.00493965 98.6073 1.2184e-05C100.9 -0.0038374 103.1 0.90467 104.72 2.52534C106.342 4.14697 107.251 6.34708 107.246 8.63934C107.241 10.9318 106.323 13.128 104.695 14.7427L79.4715 39.9664C77.9826 41.4581 75.9606 42.2945 73.8529 42.2916L73.8538 42.2917ZM62.0365 17.1518C60.8873 17.1509 59.7845 17.6051 58.9694 18.4145C58.1532 19.2248 57.6913 20.3239 57.6846 21.473C57.6778 22.623 58.1263 23.7278 58.9318 24.5477L71.3237 36.9395L71.3227 36.9386C72.0031 37.6103 72.9222 37.9847 73.8778 37.9809C74.8335 37.977 75.7487 37.5949 76.4244 36.9184L101.648 11.6947C102.467 10.8892 102.93 9.78913 102.935 8.64015C102.939 7.492 102.484 6.38815 101.672 5.57576C100.86 4.76337 99.757 4.30925 98.6077 4.31309C97.4596 4.31791 96.3596 4.78081 95.5532 5.59887L75.4353 25.7167H75.4363C75.0321 26.1209 74.4835 26.348 73.9119 26.348C73.3402 26.348 72.7916 26.1209 72.3874 25.7167L65.0761 18.4053C64.2705 17.5998 63.1773 17.1494 62.0378 17.1523L62.0365 17.1518Z" fill="#FFBB30"/>
</svg>
