<svg width="160" height="160" viewBox="0 0 160 160" fill="none" xmlns="http://www.w3.org/2000/svg">
<path d="M138.42 71.3191C136.797 70.2239 133.541 68.0421 111.802 84.2613C111.53 83.5279 111.095 82.8658 110.529 82.3259C108.481 80.3636 104.597 79.6072 98.9945 80.0662C93.3432 80.4531 87.667 80.1201 82.0997 79.0749C80.5204 78.6188 78.9767 78.049 77.4792 77.3715C75.3957 76.4187 73.2061 75.7181 70.957 75.2841C56.3651 72.1544 45.344 76.4399 38.1475 87.9954L37.749 87.5027H37.7481C36.9435 86.5124 35.7781 85.882 34.5088 85.7482C33.2394 85.6145 31.9689 85.9898 30.9758 86.7915L21.7838 94.2347C20.7916 95.0383 20.1593 96.2037 20.0265 97.4732C19.8927 98.7436 20.269 100.014 21.0726 101.007L44.249 129.626C45.0506 130.622 46.2171 131.255 47.4893 131.385C47.6586 131.403 47.8299 131.413 48.0003 131.413C49.1013 131.413 50.1676 131.034 51.0213 130.339L60.2103 122.898L60.2113 122.899C61.2035 122.094 61.8368 120.93 61.9705 119.659C62.1043 118.388 61.728 117.117 60.9244 116.124L60.6751 115.816C67.6832 113.456 75.2015 113.045 82.4252 114.627C85.0333 115.095 87.6722 115.368 90.3197 115.447H90.4141C112.005 115.447 136.037 88.6366 139.558 77.2099C140.639 73.7077 139.534 72.0735 138.418 71.3201L138.42 71.3191ZM57.5013 119.544L48.3094 126.988H48.3104C48.0938 127.163 47.7772 127.128 47.603 126.912L24.4257 98.2936C24.34 98.1906 24.3006 98.0568 24.3169 97.924C24.3304 97.7912 24.3958 97.669 24.4998 97.5853L33.6888 90.1441C33.9063 89.9689 34.2239 90.0016 34.4009 90.2182L57.5753 118.837C57.6609 118.94 57.7004 119.074 57.685 119.207C57.6725 119.34 57.607 119.462 57.5012 119.544L57.5013 119.544ZM128.528 87.2397C119.691 98.2735 104.419 111.135 90.4217 111.135H90.3399C87.9041 111.053 85.477 110.795 83.0786 110.364C74.6499 108.541 65.8728 109.207 57.8154 112.28L41.0468 91.5723C47.262 80.6153 56.7597 76.6485 70.0572 79.5H70.0563C72.0215 79.8724 73.9327 80.4836 75.7487 81.3189C77.4127 82.0705 79.1277 82.7019 80.8812 83.21C86.9597 84.414 93.171 84.8018 99.3505 84.362C105.401 83.8664 107.151 85.0597 107.546 85.438C107.749 85.6103 107.852 85.8711 107.825 86.1347C107.571 87.0365 107.048 87.8392 106.325 88.4349L106.317 88.4406L106.302 88.458V88.4589C104.191 90.4896 101.708 92.0949 98.9907 93.1871C95.5358 94.5883 90.1636 94.084 84.9715 93.599C79.9758 93.1322 75.258 92.6905 71.725 93.8242H71.726C71.1813 93.9984 70.7289 94.3814 70.4672 94.8896C70.2054 95.3977 70.1563 95.9896 70.3305 96.5333C70.6933 97.667 71.9059 98.2926 73.0396 97.9298C75.7382 97.0655 80.2268 97.4861 84.5701 97.8922C87.3283 98.1502 90.1281 98.4119 92.7872 98.4119C95.4483 98.5005 98.1024 98.0847 100.608 97.1839C103.698 95.9107 106.536 94.0956 108.988 91.8253C128.673 76.529 134.392 75.0017 135.693 74.8891C135.539 76.3799 133.783 80.6789 128.529 87.2396L128.528 87.2397Z" fill="#79A7F3"/>
<path d="M93.8538 70.2917C91.7615 70.2966 89.7539 69.4679 88.2746 67.9878L75.8828 55.5959C73.7107 53.4074 72.8667 50.2267 73.6693 47.2491C74.471 44.2704 76.797 41.9444 79.7756 41.1427C82.7543 40.3401 85.934 41.1841 88.1225 43.3562L93.9103 49.144L112.504 30.5505C114.118 28.9231 116.315 28.0049 118.607 28C120.9 27.9962 123.1 28.9047 124.72 30.5253C126.342 32.147 127.251 34.3471 127.246 36.6393C127.241 38.9318 126.323 41.128 124.695 42.7427L99.4715 67.9664C97.9826 69.4581 95.9606 70.2945 93.8529 70.2916L93.8538 70.2917ZM82.0365 45.1518C80.8873 45.1509 79.7845 45.6051 78.9694 46.4145C78.1532 47.2248 77.6913 48.3239 77.6846 49.473C77.6778 50.623 78.1263 51.7278 78.9318 52.5477L91.3237 64.9395L91.3227 64.9386C92.0031 65.6103 92.9222 65.9847 93.8778 65.9809C94.8335 65.977 95.7487 65.5949 96.4244 64.9184L121.648 39.6947C122.467 38.8892 122.93 37.7891 122.935 36.6401C122.939 35.492 122.484 34.3881 121.672 33.5758C120.86 32.7634 119.757 32.3093 118.608 32.3131C117.46 32.3179 116.36 32.7808 115.553 33.5989L95.4353 53.7167H95.4363C95.0321 54.1209 94.4835 54.348 93.9119 54.348C93.3402 54.348 92.7916 54.1209 92.3874 53.7167L85.0761 46.4053C84.2705 45.5998 83.1773 45.1494 82.0378 45.1523L82.0365 45.1518Z" fill="#79A7F3"/>
</svg>
