<svg width="160" height="160" viewBox="0 0 160 160" fill="none" xmlns="http://www.w3.org/2000/svg">
<path fill-rule="evenodd" clip-rule="evenodd" d="M140.002 137.329L137.924 130.709C137.102 128.006 135.427 125.639 133.146 123.958C130.866 122.277 128.103 121.373 125.266 121.378H118.699C117.901 119.841 116.925 118.404 115.789 117.095V58.2756C115.789 57.6244 115.481 57.0111 114.957 56.6204L112.713 54.9449L115.187 52.5038L115.186 52.5029C115.575 52.1131 115.792 51.5839 115.789 51.0343V38.6206C115.789 33.6818 113.818 28.9454 110.31 25.454C106.802 21.9616 102.044 20 97.083 20H63.8283C58.8669 20 54.1089 21.9618 50.6014 25.454C47.0931 28.9454 45.1225 33.6818 45.1225 38.6206V85.7927C45.1225 86.5233 45.5094 87.1994 46.1413 87.5716L47.7205 88.523L45.9121 89.9713V89.9722C45.4157 90.3619 45.1253 90.9559 45.1225 91.5858V117.033L44.9351 117.24H38.6998C35.1767 117.227 31.7427 118.344 28.9089 120.428C26.0742 122.511 23.9903 125.449 22.9668 128.805L20.1812 137.329C19.9854 137.972 20.1144 138.668 20.5273 139.198C20.9402 139.729 21.586 140.027 22.2596 139.998H138.007C138.666 140 139.287 139.691 139.68 139.164C140.074 138.638 140.193 137.957 140.002 137.329L140.002 137.329ZM52.4164 86.497L49.2784 84.6138V38.6215C49.2784 34.7801 50.8112 31.0967 53.54 28.381C56.2678 25.6647 59.9681 24.1388 63.8273 24.1388H97.082C100.941 24.1388 104.641 25.6647 107.369 28.381C110.098 31.0964 111.631 34.7799 111.631 38.6215V50.1873L108.077 53.7045C107.649 54.1294 107.429 54.7187 107.472 55.3181C107.517 55.9185 107.82 56.469 108.305 56.8283L111.631 59.311V113.269C109.143 111.482 106.313 110.222 103.317 109.566V94.3182H99.1604V108.966C97.0579 108.88 73.5081 108.938 64.8499 108.959H64.8474C63.1521 108.963 62.0282 108.966 61.7489 108.966V53.3314H57.592V109.524C54.5996 110.204 51.7744 111.47 49.2784 113.248V92.5587L52.6661 89.8691C53.1884 89.4424 53.4696 88.7894 53.4195 88.1188C53.3703 87.4473 52.9964 86.8424 52.4165 86.4969L52.4164 86.497ZM25.0645 135.861L26.8729 130.026C27.6402 127.519 29.199 125.323 31.3183 123.766C33.4366 122.209 36.0032 121.371 38.6365 121.378H45.9323C46.5865 121.378 47.2026 121.072 47.5951 120.551C51.144 115.883 56.6779 113.128 62.5597 113.102H98.3489C104.579 113.118 110.393 116.221 113.854 121.378H92.9245V125.516H125.265C127.218 125.506 129.122 126.125 130.691 127.281C132.261 128.437 133.412 130.068 133.974 131.93L135.2 135.861L25.0645 135.861ZM61.7496 38.6203C61.7496 37.4778 62.6803 36.5514 63.828 36.5514H97.0827C97.6339 36.5514 98.1628 36.7693 98.5525 37.1573C98.9422 37.5452 99.1611 38.0717 99.1611 38.6203V88.2752H103.318V38.6203C103.318 36.9744 102.661 35.3949 101.492 34.2313C100.323 33.0677 98.7361 32.4136 97.0828 32.4136H63.8281C62.1747 32.4136 60.588 33.0675 59.4191 34.2313C58.2502 35.3951 57.593 36.9746 57.593 38.6203V48.9651H61.7499L61.7496 38.6203ZM86.6901 61.3787H92.9253C93.4765 61.3787 94.0054 61.5967 94.3951 61.9846C94.7848 62.3726 95.0038 62.899 95.0038 63.4477V71.7235C95.0038 72.2721 94.7848 72.7986 94.3951 73.1865C94.0054 73.5745 93.4765 73.7924 92.9253 73.7924H86.6901V88.2751C86.6901 88.8238 86.4711 89.3502 86.0814 89.7382C85.6917 90.1261 85.1628 90.3441 84.6117 90.3441H76.298C75.7468 90.3441 75.218 90.1261 74.8283 89.7382C74.4386 89.3502 74.2196 88.8238 74.2196 88.2751V73.7924H67.9843C67.4332 73.7924 66.9043 73.5745 66.5146 73.1865C66.1249 72.7986 65.9059 72.2721 65.9059 71.7235V63.4477C65.9059 62.3051 66.8366 61.3787 67.9843 61.3787H74.2196V55.1719C74.2196 54.0293 75.1502 53.1029 76.298 53.1029H84.6117C85.1628 53.1029 85.6917 53.3209 86.0814 53.7088C86.4711 54.0967 86.6901 54.6232 86.6901 55.1719V61.3787ZM84.6117 69.6545H90.8469V65.5166H84.6117C84.0605 65.5166 83.5316 65.2986 83.1419 64.9107C82.7522 64.5228 82.5332 63.9963 82.5332 63.4477V57.2408H78.3764V63.4477C78.3764 63.9963 78.1574 64.5228 77.7677 64.9107C77.378 65.2986 76.8491 65.5166 76.298 65.5166H70.0627V69.6545H76.298C76.8491 69.6545 77.378 69.8725 77.7677 70.2604C78.1574 70.6484 78.3764 71.1749 78.3764 71.7235V86.2062H82.5332V71.7235C82.5332 70.581 83.4639 69.6545 84.6117 69.6545Z" fill="#79A7F3"/>
</svg>
