<svg width="121" height="120" viewBox="0 0 121 120" fill="none" xmlns="http://www.w3.org/2000/svg">
<path fill-rule="evenodd" clip-rule="evenodd" d="M120.002 117.329L117.924 110.709C117.101 108.006 115.427 105.639 113.146 103.958C110.866 102.277 108.103 101.373 105.266 101.378H98.6983C97.9012 99.8412 96.9251 98.4041 95.7885 97.0953V38.2756C95.7885 37.6244 95.4804 37.0111 94.9571 36.6204L92.7126 34.9449L95.1863 32.5038L95.1854 32.5029C95.5751 32.1131 95.7913 31.5839 95.7885 31.0343V18.6206C95.7885 13.6818 93.8177 8.94545 90.3095 5.454C86.8021 1.9616 82.0441 0 77.0827 0H43.828C38.8667 0 34.1086 1.96182 30.6012 5.454C27.0928 8.94545 25.1223 13.6818 25.1223 18.6206V65.7927C25.1223 66.5233 25.5092 67.1994 26.1411 67.5716L27.7203 68.523L25.9119 69.9713V69.9722C25.4155 70.3619 25.125 70.9559 25.1223 71.5858V97.0327L24.9348 97.2396H18.6996C15.1765 97.2267 11.7425 98.3443 8.90868 100.428C6.07395 102.511 3.99007 105.449 2.96654 108.805L0.18098 117.329C-0.0147995 117.972 0.114174 118.668 0.527067 119.198C0.939972 119.729 1.58575 120.027 2.2594 119.998H118.007C118.666 120 119.287 119.691 119.68 119.164C120.073 118.638 120.193 117.957 120.002 117.329L120.002 117.329ZM32.4162 66.497L29.2781 64.6138V18.6215C29.2781 14.7801 30.811 11.0967 33.5397 8.38101C36.2676 5.66465 39.9679 4.13883 43.8271 4.13883H77.0818C80.9407 4.13883 84.641 5.66468 87.3691 8.38101C90.0979 11.0964 91.6307 14.7799 91.6307 18.6215V30.1873L88.077 33.7045C87.6492 34.1294 87.4284 34.7187 87.472 35.3181C87.5165 35.9185 87.8199 36.469 88.3052 36.8283L91.6307 39.311V93.2693C89.143 91.4821 86.313 90.2222 83.317 89.5665V74.3182H79.1602V88.9661C77.0577 88.8796 53.5079 88.9378 44.8497 88.9592H44.8472C43.1518 88.9634 42.028 88.9661 41.7486 88.9661V33.3314H37.5918V89.5242C34.5993 90.204 31.7741 91.4703 29.2781 93.2483V72.5587L32.6658 69.8691C33.1882 69.4424 33.4694 68.7894 33.4193 68.1188C33.3701 67.4473 32.9962 66.8424 32.4162 66.4969L32.4162 66.497ZM5.06421 115.861L6.87263 110.026C7.63998 107.519 9.19879 105.323 11.3181 103.766C13.4364 102.209 16.0029 101.371 18.6362 101.378H25.9321C26.5862 101.378 27.2023 101.072 27.5948 100.551C31.1438 95.8826 36.6776 93.1281 42.5594 93.1024H78.3486C84.5791 93.1181 90.3923 96.2214 93.8541 101.378H72.9243V105.516H105.264C107.218 105.506 109.122 106.125 110.691 107.281C112.261 108.437 113.412 110.068 113.973 111.93L115.2 115.861L5.06421 115.861ZM41.7494 18.6203C41.7494 17.4778 42.68 16.5514 43.8278 16.5514H77.0825C77.6336 16.5514 78.1625 16.7693 78.5522 17.1573C78.9419 17.5452 79.1609 18.0717 79.1609 18.6203V68.2752H83.3177V18.6203C83.3177 16.9744 82.6608 15.3949 81.4917 14.2313C80.3226 13.0677 78.7358 12.4136 77.0826 12.4136H43.8279C42.1745 12.4136 40.5877 13.0675 39.4188 14.2313C38.2499 15.3951 37.5928 16.9746 37.5928 18.6203V28.9651H41.7496L41.7494 18.6203ZM66.6898 41.3787H72.9251C73.4762 41.3787 74.0051 41.5967 74.3948 41.9846C74.7845 42.3726 75.0035 42.899 75.0035 43.4477V51.7235C75.0035 52.2721 74.7845 52.7986 74.3948 53.1865C74.0051 53.5745 73.4762 53.7924 72.9251 53.7924H66.6898V68.2751C66.6898 68.8238 66.4709 69.3502 66.0812 69.7382C65.6915 70.1261 65.1626 70.3441 64.6114 70.3441H56.2977C55.7466 70.3441 55.2177 70.1261 54.828 69.7382C54.4383 69.3502 54.2193 68.8238 54.2193 68.2751V53.7924H47.9841C47.4329 53.7924 46.904 53.5745 46.5143 53.1865C46.1246 52.7986 45.9057 52.2721 45.9057 51.7235V43.4477C45.9057 42.3051 46.8363 41.3787 47.9841 41.3787H54.2193V35.1719C54.2193 34.0293 55.15 33.1029 56.2977 33.1029H64.6114C65.1626 33.1029 65.6915 33.3209 66.0812 33.7088C66.4709 34.0967 66.6898 34.6232 66.6898 35.1719V41.3787ZM64.6114 49.6545H70.8467V45.5166H64.6114C64.0603 45.5166 63.5314 45.2986 63.1417 44.9107C62.752 44.5228 62.533 43.9963 62.533 43.4477V37.2408H58.3762V43.4477C58.3762 43.9963 58.1572 44.5228 57.7675 44.9107C57.3778 45.2986 56.8489 45.5166 56.2977 45.5166H50.0625V49.6545H56.2977C56.8489 49.6545 57.3778 49.8725 57.7675 50.2604C58.1572 50.6484 58.3762 51.1749 58.3762 51.7235V66.2062H62.533V51.7235C62.533 50.581 63.4637 49.6545 64.6114 49.6545Z" fill="#FFBB30"/>
</svg>
