<svg width="120" height="120" viewBox="0 0 120 120" fill="none" xmlns="http://www.w3.org/2000/svg">
<path d="M118 71.9998H100.776L107.898 50.632C107.966 50.4285 108 50.2151 108 49.9999V41.9999C108 41.4696 107.789 40.9606 107.414 40.5856C107.039 40.2106 106.53 39.9999 106 39.9999H62.7724C64.5403 31.5579 64.0483 24.0641 61.6001 20.7999C61.1885 20.2392 60.5126 19.9356 59.8197 19.9999C59.1331 20.0651 58.5287 20.4803 58.2197 21.0981C55.5438 26.4499 52.5939 28.0981 51.684 27.7642C50.7179 27.4044 48.684 23.4579 51.95 10.4803C52.1973 9.50263 51.6786 8.49369 50.7402 8.1267C49.8009 7.75883 48.7357 8.14813 48.2536 9.03385C42.0001 20.4883 39.0001 21.8 38.0001 21.8437C37.0001 21.8873 35.8001 20.1196 34.8001 18.5616C34.4001 17.9357 34.0001 17.3277 33.6001 16.8C33.1385 16.184 32.3635 15.8884 31.609 16.0384C30.8537 16.1893 30.2519 16.7598 30.0617 17.5063C29.2501 20.4937 26.9609 22.8562 24 23.7616V22C24.0036 19.349 25.058 16.8071 26.9321 14.9321C28.8071 13.058 31.349 12.0037 34 12C34.5304 12 35.0393 11.7893 35.4143 11.4143C35.7893 11.0393 36 10.5304 36 10V2C36 1.46965 35.7893 0.960709 35.4143 0.585714C35.0393 0.21072 34.5304 0 34 0H2C0.895543 0 0 0.895543 0 2V118C0 118.53 0.210715 119.039 0.585714 119.414C0.960713 119.789 1.46965 120 2 120H34C34.5304 120 35.0393 119.789 35.4143 119.414C35.7893 119.039 36 118.53 36 118V112.828L64.8274 84.0002H118C118.53 84.0002 119.039 83.7895 119.414 83.4145C119.789 83.0395 120 82.5306 120 82.0002V74.0002C120 73.4699 119.789 72.9609 119.414 72.5859C119.039 72.211 118.53 72.0002 118 72.0002L118 71.9998ZM96.5577 71.9998H73.9998V63.9998H77.9998V59.9998H73.9998V55.9998H69.9998V59.9998H65.9998V63.9998H69.9998V71.9998H41.0261C48.0322 68.1221 53.709 62.2256 57.3179 55.0775C57.8599 54.0632 58.3536 53.0356 58.826 51.9998H103.226L96.5577 71.9998ZM61.7714 43.9998H104V47.9998H60.4686C60.957 46.6668 61.3918 45.3328 61.773 43.9998H61.7714ZM32.3497 22.1194C33.4917 24.289 35.6864 25.7015 38.1337 25.8416C40.6615 25.7497 43.248 23.88 46.2615 19.8238C45.7856 26.3015 47.1418 30.3578 50.2855 31.5221C53.1936 32.5962 56.6176 30.7221 59.5552 26.6284C60.4391 32.2819 59.273 42.9479 53.7909 53.1907C49.2818 61.6165 40.8434 71.3344 25.896 72.0005H23.9996V67.9827C31.0343 68.455 37.9719 66.1318 43.3031 61.5185C50.587 55.2567 54.4192 43.5006 54.3468 39.2149H54.3477C54.4039 38.1738 54.0021 37.1604 53.2494 36.4407C51.2494 34.8407 49.0977 36.7586 47.369 38.3023C46.7118 38.9139 46.0145 39.4818 45.2833 40.0023C45.369 38.7577 45.5538 37.5219 45.8377 36.3068C46.4038 33.5568 46.8913 31.1827 44.8734 30.2032C42.8895 29.2434 41.3137 31.0729 39.6412 33.0149C38.7608 34.1729 37.7028 35.1854 36.5073 36.0149C35.8635 34.8381 35.4082 33.5676 35.1555 32.2506C34.6091 30.1184 33.9992 27.9283 31.9029 28.0005C30.1708 28.0844 29.6806 29.7344 29.419 30.6229C29.2494 31.3738 28.928 32.0818 28.4753 32.7042C27.2431 33.7729 25.619 34.2756 23.9994 34.089V27.8488C27.4904 27.2621 30.5459 25.1667 32.3493 22.1203L32.3497 22.1194ZM42.8238 43.6176C45.3515 45.4578 48.056 43.0453 50.0238 41.2874L50.1497 41.1731C49.3354 45.3491 46.1497 53.7927 40.6879 58.4812V58.4821C36.0969 62.4446 30.1202 64.4231 24.0719 63.982H23.9996V38.1031C26.8024 38.3415 29.5631 37.3102 31.5237 35.2933C31.6041 35.2013 31.68 35.1049 31.7514 35.0111C32.4014 37.2111 33.3755 39.3773 35.4934 39.9352C37.8451 40.5352 39.9158 38.7094 41.663 36.7773C41.1558 39.4578 40.8933 42.2139 42.8237 43.6175L42.8238 43.6176ZM3.99863 3.99936H31.9986V7.99936H3.99863V3.99936ZM31.9986 115.999H3.99863V11.9994H24.2165C21.5191 14.627 19.9986 18.2332 19.9986 21.9994V81.9994C19.9986 82.5297 20.2093 83.0387 20.5843 83.4136C20.9593 83.7886 21.4683 83.9994 21.9986 83.9994H31.9986V115.999ZM35.9986 107.172V100.827L52.8263 83.9994H59.1701L35.9986 107.172ZM35.9986 95.1717V83.9994H47.171L35.9986 95.1717ZM115.999 79.9994H23.9986V76.0556C24.0647 76.0556 115.999 75.9993 115.999 75.9993V79.9994Z" fill="#FFBB30"/>
</svg>
