<svg width="160" height="160" viewBox="0 0 160 160" fill="none" xmlns="http://www.w3.org/2000/svg">
<path d="M138 91.9998H120.776L127.898 70.632C127.966 70.4285 128 70.2151 128 69.9999V61.9999C128 61.4696 127.789 60.9606 127.414 60.5856C127.039 60.2106 126.53 59.9999 126 59.9999H82.7724C84.5403 51.5579 84.0483 44.0641 81.6001 40.7999C81.1885 40.2392 80.5126 39.9356 79.8197 39.9999C79.1331 40.0651 78.5287 40.4803 78.2197 41.0981C75.5438 46.4499 72.5939 48.0981 71.684 47.7642C70.7179 47.4044 68.684 43.4579 71.95 30.4803C72.1973 29.5026 71.6786 28.4937 70.7402 28.1267C69.8009 27.7588 68.7357 28.1481 68.2536 29.0339C62.0001 40.4883 59.0001 41.8 58.0001 41.8437C57.0001 41.8873 55.8001 40.1196 54.8001 38.5616C54.4001 37.9357 54.0001 37.3277 53.6001 36.8C53.1385 36.184 52.3635 35.8884 51.609 36.0384C50.8537 36.1893 50.2519 36.7598 50.0617 37.5063C49.2501 40.4937 46.9609 42.8562 44 43.7616V42C44.0036 39.349 45.058 36.8071 46.9321 34.9321C48.8071 33.058 51.349 32.0037 54 32C54.5304 32 55.0393 31.7893 55.4143 31.4143C55.7893 31.0393 56 30.5304 56 30V22C56 21.4696 55.7893 20.9607 55.4143 20.5857C55.0393 20.2107 54.5304 20 54 20H22C20.8955 20 20 20.8955 20 22V138C20 138.53 20.2107 139.039 20.5857 139.414C20.9607 139.789 21.4696 140 22 140H54C54.5304 140 55.0393 139.789 55.4143 139.414C55.7893 139.039 56 138.53 56 138V132.828L84.8274 104H138C138.53 104 139.039 103.79 139.414 103.415C139.789 103.04 140 102.531 140 102V94.0002C140 93.4699 139.789 92.9609 139.414 92.5859C139.039 92.211 138.53 92.0002 138 92.0002L138 91.9998ZM116.558 91.9998H93.9998V83.9998H97.9998V79.9998H93.9998V75.9998H89.9998V79.9998H85.9998V83.9998H89.9998V91.9998H61.0261C68.0322 88.1221 73.709 82.2256 77.3179 75.0775C77.8599 74.0632 78.3536 73.0356 78.826 71.9998H123.226L116.558 91.9998ZM81.7714 63.9998H124V67.9998H80.4686C80.957 66.6668 81.3918 65.3328 81.773 63.9998H81.7714ZM52.3497 42.1194C53.4917 44.289 55.6864 45.7015 58.1337 45.8416C60.6615 45.7497 63.248 43.88 66.2615 39.8238C65.7856 46.3015 67.1418 50.3578 70.2855 51.5221C73.1936 52.5962 76.6176 50.7221 79.5552 46.6284C80.4391 52.2819 79.273 62.9479 73.7909 73.1907C69.2818 81.6165 60.8434 91.3344 45.896 92.0005H43.9996V87.9827C51.0343 88.455 57.9719 86.1318 63.3031 81.5185C70.587 75.2567 74.4192 63.5006 74.3468 59.2149H74.3477C74.4039 58.1738 74.0021 57.1604 73.2494 56.4407C71.2494 54.8407 69.0977 56.7586 67.369 58.3023C66.7118 58.9139 66.0145 59.4818 65.2833 60.0023C65.369 58.7577 65.5538 57.5219 65.8377 56.3068C66.4038 53.5568 66.8913 51.1827 64.8734 50.2032C62.8895 49.2434 61.3137 51.0729 59.6412 53.0149C58.7608 54.1729 57.7028 55.1854 56.5073 56.0149C55.8635 54.8381 55.4082 53.5676 55.1555 52.2506C54.6091 50.1184 53.9992 47.9283 51.9029 48.0005C50.1708 48.0844 49.6806 49.7344 49.419 50.6229C49.2494 51.3738 48.928 52.0818 48.4753 52.7042C47.2431 53.7729 45.619 54.2756 43.9994 54.089V47.8488C47.4904 47.2621 50.5459 45.1667 52.3493 42.1203L52.3497 42.1194ZM62.8238 63.6176C65.3515 65.4578 68.056 63.0453 70.0238 61.2874L70.1497 61.1731C69.3354 65.3491 66.1497 73.7927 60.6879 78.4812V78.4821C56.0969 82.4446 50.1202 84.4231 44.0719 83.982H43.9996V58.1031C46.8024 58.3415 49.5631 57.3102 51.5237 55.2933C51.6041 55.2013 51.68 55.1049 51.7514 55.0111C52.4014 57.2111 53.3755 59.3773 55.4934 59.9352C57.8451 60.5352 59.9158 58.7094 61.663 56.7773C61.1558 59.4578 60.8933 62.2139 62.8237 63.6175L62.8238 63.6176ZM23.9986 23.9994H51.9986V27.9994H23.9986V23.9994ZM51.9986 135.999H23.9986V31.9994H44.2165C41.5191 34.627 39.9986 38.2332 39.9986 41.9994V101.999C39.9986 102.53 40.2093 103.039 40.5843 103.414C40.9593 103.789 41.4683 103.999 41.9986 103.999H51.9986V135.999ZM55.9986 127.172V120.827L72.8263 103.999H79.1701L55.9986 127.172ZM55.9986 115.172V103.999H67.171L55.9986 115.172ZM135.999 99.9994H43.9986V96.0556C44.0647 96.0556 135.999 95.9993 135.999 95.9993V99.9994Z" fill="#79A7F3"/>
</svg>
