<?xml version="1.0" standalone="no"?>
<!DOCTYPE svg PUBLIC "-//W3C//DTD SVG 20010904//EN"
 "http://www.w3.org/TR/2001/REC-SVG-20010904/DTD/svg10.dtd">
<svg version="1.0" xmlns="http://www.w3.org/2000/svg"
 width="295.000000pt" height="295.000000pt" viewBox="0 0 295.000000 295.000000"
 preserveAspectRatio="xMidYMid meet">
<metadata>
Created by potrace 1.14, written by Peter Selinger 2001-2017
</metadata>
<g transform="translate(0.000000,295.000000) scale(0.100000,-0.100000)"
fill="#000000" stroke="none">
<path d="M1783 2817 c-29 -16 -62 -60 -99 -132 -23 -44 -36 -59 -50 -58 -11 1
-59 5 -108 9 -62 5 -100 13 -123 27 -45 26 -118 18 -182 -20 -25 -15 -48 -28
-51 -28 -61 -10 -170 -47 -170 -57 0 -4 -18 10 -40 31 -47 44 -93 62 -133 48
-40 -13 -45 -45 -23 -144 3 -17 -1 -26 -17 -34 -32 -17 -136 -96 -185 -143
-61 -57 -151 -170 -194 -241 -40 -67 -99 -185 -92 -185 3 0 0 -9 -7 -21 -14
-27 -48 -148 -54 -197 -27 -203 -26 -275 5 -445 62 -331 288 -637 593 -801 73
-40 140 -67 260 -105 105 -34 340 -50 448 -32 30 6 70 12 89 14 40 6 126 29
185 51 212 77 398 217 535 401 33 44 65 86 70 92 6 7 8 13 4 13 -4 0 0 8 8 18
49 57 122 273 144 427 15 101 14 244 -1 325 -2 14 -7 42 -10 64 -3 21 -7 42
-10 46 -2 4 -7 21 -10 39 -9 51 -71 198 -116 275 -104 177 -277 347 -444 437
-75 40 -75 40 -80 75 -27 163 -39 200 -82 240 -30 27 -30 28 -60 11z"/>
</g>
</svg>
